<svg width="875" height="875" viewBox="0 0 875 875" fill="none" xmlns="http://www.w3.org/2000/svg">
<path d="M0 126.996C0 56.8579 56.8579 0 126.996 0H748.004C818.142 0 875 56.8579 875 126.996V748.004C875 818.142 818.142 875 748.004 875H126.996C56.8579 875 0 818.142 0 748.004V126.996Z" fill="url(#paint0_linear_403_59)"/>
<path fill-rule="evenodd" clip-rule="evenodd" d="M748.004 104.136H126.996C114.371 104.136 104.136 114.371 104.136 126.996V748.004C104.136 760.629 114.371 770.864 126.996 770.864H748.004C760.629 770.864 770.864 760.629 770.864 748.004V126.996C770.864 114.371 760.629 104.136 748.004 104.136ZM126.996 63.4978C91.9267 63.4978 63.4978 91.9268 63.4978 126.996V748.004C63.4978 783.073 91.9268 811.502 126.996 811.502H748.004C783.073 811.502 811.502 783.073 811.502 748.004V126.996C811.502 91.9267 783.073 63.4978 748.004 63.4978H126.996Z" fill="black"/>
<path d="M657.838 418.996L438.135 199.383L218.433 418.996L432.153 632.629H235.28V673.871H640.99V632.629H444.118L657.838 418.996ZM438.135 257.706L599.491 418.996L438.135 580.287L276.779 418.996L438.135 257.706Z" fill="black"/>
<path d="M459.015 504.781V439.781H523.83V398.424H459.015V333.39H417.796V398.424H353.015V439.781H417.796V504.781H459.015Z" fill="black"/>
<defs>
<linearGradient id="paint0_linear_403_59" x1="65" y1="875" x2="825" y2="-2.68647e-06" gradientUnits="userSpaceOnUse">
<stop stop-color="#B6D0F7"/>
<stop offset="0.14" stop-color="#EEF4E1"/>
<stop offset="0.28" stop-color="#FAFCFE"/>
<stop offset="0.42" stop-color="#E2C1F9"/>
<stop offset="0.57" stop-color="#BFD1F9"/>
<stop offset="0.71" stop-color="#FAFCFE"/>
<stop offset="0.85" stop-color="#BAE4E2"/>
<stop offset="1" stop-color="#8C6BE3"/>
</linearGradient>
</defs>
</svg>
